<svg width="206" height="76" viewBox="0 0 206 76" fill="none" xmlns="http://www.w3.org/2000/svg">
<path d="M8.0112 31.1533L19.3653 11.6891H22.6094L33.9635 31.1533H31.1249L28.6919 26.6928H13.2828L10.8497 31.1533H8.0112ZM14.4993 24.6653H27.4754L20.9873 13.3111L14.4993 24.6653ZM43.1507 31.1533C41.6638 31.1533 40.4727 31.0055 39.5772 30.7098C38.6817 30.4057 38.0312 29.8734 37.6257 29.1131C37.2286 28.3444 37.0301 27.2672 37.0301 25.8818V12.5635H39.4631V16.5552H48.4476V18.5573H39.4631V25.8818C39.4631 26.8279 39.5476 27.5334 39.7166 27.998C39.894 28.4626 40.2446 28.7668 40.7683 28.9104C41.3006 29.054 42.0947 29.1258 43.1507 29.1258C44.0884 29.1258 44.8234 29.0962 45.3556 29.0371C45.8963 28.978 46.2933 28.8217 46.5468 28.5682C46.8002 28.3063 46.9607 27.8797 47.0283 27.2884C47.0959 26.697 47.1297 25.8649 47.1297 24.792H49.2839C49.2839 26.1943 49.1952 27.3179 49.0178 28.1627C48.8488 29.0075 48.5405 29.6454 48.0927 30.0762C47.6535 30.507 47.0325 30.7943 46.23 30.9379C45.4359 31.0815 44.4094 31.1533 43.1507 31.1533ZM60.562 31.4321C58.9315 31.4321 57.5461 31.3476 56.4056 31.1787C55.2651 31.0182 54.3443 30.6845 53.6431 30.1776C52.9419 29.6622 52.4308 28.8935 52.1098 27.8713C51.7887 26.8491 51.6282 25.4847 51.6282 23.7782C51.6282 22.1224 51.7887 20.7961 52.1098 19.7992C52.4308 18.8023 52.9419 18.0505 53.6431 17.5436C54.3443 17.0367 55.2651 16.6988 56.4056 16.5298C57.5461 16.3609 58.9315 16.2764 60.562 16.2764C62.2009 16.2764 63.5864 16.3609 64.7184 16.5298C65.8589 16.6988 66.7797 17.0367 67.4809 17.5436C68.1821 18.0505 68.6932 18.8023 69.0142 19.7992C69.3352 20.7961 69.4958 22.1224 69.4958 23.7782C69.4958 25.4847 69.3352 26.8491 69.0142 27.8713C68.6932 28.8935 68.1821 29.6622 67.4809 30.1776C66.7797 30.6845 65.8589 31.0182 64.7184 31.1787C63.5864 31.3476 62.2009 31.4321 60.562 31.4321ZM67.0627 23.7782C67.0627 22.5702 66.9994 21.6029 66.8727 20.8763C66.7544 20.1498 66.4883 19.6049 66.0743 19.2416C65.6604 18.8699 65.0141 18.6207 64.1355 18.494C63.2654 18.3673 62.0742 18.3039 60.562 18.3039C59.0583 18.3039 57.8671 18.3673 56.9885 18.494C56.1099 18.6207 55.4636 18.8699 55.0497 19.2416C54.6357 19.6049 54.3654 20.1498 54.2387 20.8763C54.1204 21.6029 54.0613 22.5702 54.0613 23.7782C54.0613 25.0285 54.1204 26.0296 54.2387 26.7815C54.3654 27.5334 54.6357 28.0994 55.0497 28.4795C55.4636 28.8512 56.1099 29.1005 56.9885 29.2272C57.8671 29.3454 59.0583 29.4046 60.562 29.4046C62.0742 29.4046 63.2654 29.3454 64.1355 29.2272C65.0141 29.1005 65.6604 28.8512 66.0743 28.4795C66.4883 28.0994 66.7544 27.5334 66.8727 26.7815C66.9994 26.0296 67.0627 25.0285 67.0627 23.7782ZM72.385 31.1533V16.5552H74.818V18.3673C75.1813 17.8773 75.6163 17.4676 76.1232 17.1381C76.6301 16.8086 77.2764 16.5636 78.062 16.4031C78.8561 16.2341 79.8699 16.1497 81.1033 16.1497C82.6324 16.1497 83.8785 16.3566 84.8416 16.7706C85.8046 17.1845 86.5143 17.8984 86.9705 18.9122C87.3844 18.2701 87.8828 17.7463 88.4657 17.3408C89.0487 16.9269 89.7794 16.627 90.658 16.4411C91.545 16.2468 92.6348 16.1497 93.9274 16.1497C95.4649 16.1497 96.7152 16.3609 97.6783 16.7833C98.6414 17.1972 99.3468 17.9069 99.7945 18.9122C100.251 19.9175 100.479 21.2945 100.479 23.0432V31.1533H98.0458V23.0432C98.0458 21.7085 97.9064 20.6947 97.6276 20.002C97.3488 19.3008 96.8842 18.8235 96.2337 18.57C95.5916 18.3081 94.7215 18.1772 93.6233 18.1772C91.469 18.1772 89.9315 18.494 89.0106 19.1276C88.0983 19.7612 87.6421 20.7961 87.6421 22.2322V22.2196C87.6505 22.4814 87.6547 22.756 87.6547 23.0432V31.1533H85.2217V23.0432C85.2217 21.7085 85.0823 20.6947 84.8035 20.002C84.5248 19.3008 84.0601 18.8235 83.4096 18.57C82.7676 18.3081 81.8974 18.1772 80.7992 18.1772C78.6449 18.1772 77.1074 18.494 76.1866 19.1276C75.2742 19.7612 74.818 20.7961 74.818 22.2322V31.1533H72.385ZM103.685 31.1533V17.3662H106.118V31.1533H103.685ZM103.685 14.1221V11.6891H106.118V14.1221H103.685ZM117.89 31.4321C116.26 31.4321 114.874 31.3476 113.734 31.1787C112.593 31.0182 111.672 30.6845 110.971 30.1776C110.27 29.6622 109.759 28.8935 109.438 27.8713C109.117 26.8491 108.956 25.4847 108.956 23.7782C108.956 22.1224 109.117 20.7961 109.438 19.7992C109.759 18.8023 110.27 18.0505 110.971 17.5436C111.672 17.0367 112.593 16.6988 113.734 16.5298C114.874 16.3609 116.26 16.2764 117.89 16.2764C119.842 16.2764 121.447 16.3904 122.706 16.6185C123.973 16.8382 124.91 17.2944 125.519 17.9871C126.127 18.6798 126.431 19.7358 126.431 21.1551H124.099C124.099 20.3357 123.93 19.7232 123.593 19.3177C123.255 18.9122 122.638 18.6418 121.742 18.5067C120.847 18.3715 119.563 18.3039 117.89 18.3039C116.386 18.3039 115.195 18.3673 114.317 18.494C113.438 18.6207 112.792 18.8699 112.378 19.2416C111.964 19.6049 111.694 20.1498 111.567 20.8763C111.449 21.6029 111.389 22.5702 111.389 23.7782C111.389 25.0285 111.449 26.0296 111.567 26.7815C111.694 27.5334 111.964 28.0994 112.378 28.4795C112.792 28.8512 113.438 29.1005 114.317 29.2272C115.195 29.3454 116.386 29.4046 117.89 29.4046C119.166 29.4046 120.209 29.3708 121.02 29.3032C121.831 29.2272 122.461 29.0836 122.908 28.8724C123.356 28.6527 123.664 28.3401 123.833 27.9346C124.011 27.5207 124.099 26.9716 124.099 26.2873H126.431C126.431 27.4193 126.262 28.3275 125.924 29.0118C125.586 29.696 125.071 30.2114 124.378 30.5577C123.685 30.9041 122.798 31.1364 121.717 31.2547C120.644 31.373 119.369 31.4321 117.89 31.4321Z" fill="#11121D"/>
<path d="M22.1644 61.2002V41.736H36.6105C38.5113 41.736 40.0741 41.85 41.2991 42.0781C42.5241 42.3062 43.4787 42.7498 44.163 43.4087C44.8557 44.0592 45.3372 45.0096 45.6076 46.2599C45.8864 47.5102 46.0258 49.1618 46.0258 51.2147V51.7215C46.0258 53.7068 45.8864 55.3246 45.6076 56.5749C45.3372 57.8168 44.8557 58.7756 44.163 59.4515C43.4787 60.1189 42.5241 60.5793 41.2991 60.8327C40.0741 61.0777 38.5113 61.2002 36.6105 61.2002H22.1644ZM24.5974 59.0966H36.6105C38.1227 59.0966 39.3392 59.0248 40.26 58.8812C41.1808 58.7376 41.882 58.425 42.3635 57.9435C42.8451 57.462 43.1703 56.727 43.3393 55.7386C43.5083 54.7501 43.5927 53.4111 43.5927 51.7215V51.2147C43.5927 49.8123 43.542 48.6549 43.4407 47.7425C43.3393 46.8301 43.1492 46.1121 42.8704 45.5883C42.6001 45.0561 42.203 44.6675 41.6793 44.4225C41.1639 44.169 40.4923 44.0085 39.6644 43.9409C38.8365 43.8733 37.8185 43.8396 36.6105 43.8396H24.5974V59.0966ZM50.061 61.2002V47.4131H52.4941V61.2002H50.061ZM50.061 44.169V41.736H52.4941V44.169H50.061ZM65.4758 66.7632C64.1832 66.7632 63.0047 66.7294 61.9403 66.6618C60.8843 66.6027 59.9761 66.4506 59.2158 66.2056C58.4555 65.9691 57.8683 65.5889 57.4544 65.0652C57.0404 64.5498 56.8335 63.8402 56.8335 62.9363H59.2665C59.2665 63.5276 59.4946 63.95 59.9508 64.2035C60.4154 64.4569 61.1081 64.609 62.029 64.6597C62.9498 64.7103 64.0987 64.7357 65.4758 64.7357C66.498 64.7357 67.3723 64.7019 68.0989 64.6343C68.8254 64.5752 69.4168 64.3935 69.8729 64.0894C70.3376 63.7853 70.6755 63.2742 70.8867 62.5561C71.1064 61.8465 71.2162 60.8454 71.2162 59.5528V59.2107C70.6248 59.971 69.8096 60.4737 68.7705 60.7187C67.7398 60.9637 66.46 61.0861 64.9309 61.0861C63.3511 61.0861 62.0036 60.9974 60.8885 60.82C59.7734 60.6342 58.8652 60.2878 58.164 59.7809C57.4713 59.2741 56.9644 58.5391 56.6434 57.576C56.3224 56.6129 56.1618 55.3542 56.1618 53.7997C56.1618 52.1439 56.3224 50.8176 56.6434 49.8207C56.9644 48.8239 57.4713 48.0762 58.164 47.5778C58.8652 47.0709 59.7734 46.7372 60.8885 46.5767C62.0036 46.4077 63.3511 46.3233 64.9309 46.3233C66.46 46.3233 67.7398 46.4373 68.7705 46.6654C69.8096 46.8851 70.6248 47.3793 71.2162 48.148V46.602H73.6492V59.6542C73.6154 61.2593 73.4127 62.535 73.0409 63.4812C72.6692 64.4358 72.137 65.1454 71.4443 65.6101C70.76 66.0831 69.9152 66.3915 68.9099 66.5351C67.913 66.6872 66.7683 66.7632 65.4758 66.7632ZM71.2162 53.7997C71.2162 52.5917 71.1401 51.6286 70.9881 50.9105C70.8445 50.184 70.5572 49.6391 70.1264 49.2758C69.704 48.9041 69.0746 48.6591 68.2383 48.5409C67.4104 48.4141 66.3079 48.3508 64.9309 48.3508C63.4778 48.3508 62.3247 48.4141 61.4714 48.5409C60.6266 48.6591 59.9972 48.9041 59.5833 49.2758C59.1693 49.6391 58.899 50.184 58.7723 50.9105C58.654 51.6286 58.5949 52.5917 58.5949 53.7997C58.5949 54.898 58.654 55.7935 58.7723 56.4862C58.899 57.1789 59.1651 57.7112 59.5706 58.0829C59.9846 58.4546 60.6182 58.7123 61.4714 58.8559C62.3247 58.991 63.4778 59.0586 64.9309 59.0586C66.3079 59.0586 67.4104 58.991 68.2383 58.8559C69.0746 58.7123 69.704 58.4546 70.1264 58.0829C70.5572 57.7112 70.8445 57.1789 70.9881 56.4862C71.1401 55.7935 71.2162 54.898 71.2162 53.7997ZM77.7225 61.2002V47.4131H80.1555V61.2002H77.7225ZM77.7225 44.169V41.736H80.1555V44.169H77.7225ZM90.9323 61.2002C89.4454 61.2002 88.2543 61.0524 87.3588 60.7567C86.4633 60.4525 85.8128 59.9203 85.4073 59.16C85.0102 58.3912 84.8117 57.3141 84.8117 55.9286V42.6104H87.2447V46.602H96.2292V48.6042H87.2447V55.9286C87.2447 56.8748 87.3292 57.5802 87.4982 58.0449C87.6756 58.5095 88.0262 58.8136 88.55 58.9573C89.0822 59.1009 89.8763 59.1727 90.9323 59.1727C91.87 59.1727 92.605 59.1431 93.1372 59.084C93.6779 59.0248 94.0749 58.8685 94.3284 58.6151C94.5818 58.3532 94.7423 57.9266 94.8099 57.3352C94.8775 56.7439 94.9113 55.9117 94.9113 54.8389H97.0655C97.0655 56.2412 96.9768 57.3648 96.7994 58.2096C96.6305 59.0544 96.3221 59.6922 95.8744 60.1231C95.4351 60.5539 94.8141 60.8412 94.0116 60.9848C93.2175 61.1284 92.191 61.2002 90.9323 61.2002ZM108.299 61.479C106.55 61.479 105.105 61.3861 103.965 61.2002C102.833 61.0228 101.988 60.6257 101.43 60.009C100.881 59.3923 100.607 58.4335 100.607 57.1325C100.607 55.8061 100.864 54.8346 101.38 54.2179C101.903 53.5928 102.727 53.1873 103.851 53.0014C104.983 52.8156 106.465 52.7226 108.299 52.7226C109.785 52.7226 111.031 52.7564 112.037 52.824C113.042 52.8916 113.942 53.0099 114.736 53.1788C114.719 52.0552 114.643 51.1724 114.508 50.5304C114.373 49.8799 114.119 49.3983 113.747 49.0858C113.376 48.7732 112.831 48.5747 112.113 48.4902C111.403 48.3972 110.457 48.3508 109.274 48.3508C107.923 48.3508 106.862 48.3804 106.094 48.4395C105.333 48.4986 104.78 48.6042 104.434 48.7563C104.087 48.9084 103.868 49.128 103.775 49.4152C103.69 49.7025 103.648 50.0742 103.648 50.5304H101.215C101.215 49.618 101.337 48.883 101.582 48.3254C101.836 47.7679 102.262 47.3455 102.862 47.0582C103.462 46.771 104.281 46.5767 105.321 46.4753C106.368 46.374 107.686 46.3233 109.274 46.3233C110.981 46.3233 112.354 46.4331 113.393 46.6527C114.44 46.8724 115.234 47.2694 115.775 47.8439C116.324 48.4099 116.692 49.204 116.877 50.2262C117.072 51.2484 117.169 52.5663 117.169 54.1799V61.2002H114.736V60.1991C114.449 60.5032 114.052 60.7482 113.545 60.9341C113.038 61.1199 112.362 61.2551 111.517 61.3396C110.681 61.4325 109.608 61.479 108.299 61.479ZM108.299 59.5021C109.743 59.5021 110.896 59.4853 111.758 59.4515C112.62 59.4177 113.262 59.3247 113.684 59.1727C114.115 59.0206 114.398 58.7756 114.533 58.4377C114.668 58.0998 114.736 57.6267 114.736 57.0184V54.7755L108.299 54.6995C107.158 54.6826 106.237 54.6995 105.536 54.7501C104.843 54.7924 104.315 54.8938 103.952 55.0543C103.589 55.2063 103.344 55.4513 103.217 55.7893C103.099 56.1187 103.04 56.5665 103.04 57.1325C103.04 57.6816 103.099 58.1167 103.217 58.4377C103.344 58.7587 103.589 58.9953 103.952 59.1473C104.315 59.2994 104.843 59.3965 105.536 59.4388C106.237 59.481 107.158 59.5021 108.299 59.5021ZM121.952 61.2002V41.736H124.385V61.2002H121.952Z" fill="#11121D"/>
<g opacity="0.9">
<rect x="95.9121" y="35.2402" width="55.872" height="2.304" fill="#11121D"/>
<rect x="151.783" y="35.1934" width="45.36" height="2.304" fill="#11121D"/>
<rect x="151.118" y="35.2002" width="28.1213" height="2.304" rx="0.864" transform="rotate(-90.131 151.118 35.2002)" fill="#11121D"/>
<rect x="151.75" y="35.3594" width="16.3585" height="2.304" rx="0.864" transform="rotate(-28.1211 151.75 35.3594)" fill="#11121D"/>
<rect x="149.853" y="36.3369" width="20.3262" height="2.304" rx="0.864" transform="rotate(-145.25 149.853 36.3369)" fill="#11121D"/>
<rect x="150.783" y="36.1494" width="40.2777" height="2.304" rx="0.864" transform="rotate(-119.038 150.783 36.1494)" fill="#11121D"/>
<rect x="151.969" y="37.9023" width="28.4111" height="2.304" rx="0.864" transform="rotate(140.928 151.969 37.9023)" fill="#11121D"/>
<rect x="152.928" y="34.9541" width="24.2518" height="2.304" rx="0.864" transform="rotate(89.5253 152.928 34.9541)" fill="#11121D"/>
<rect x="152.354" y="35.2637" width="24.8802" height="2.304" rx="0.864" transform="rotate(34.961 152.354 35.2637)" fill="#11121D"/>
<rect x="152.403" y="34.9517" width="42.8278" height="2.304" rx="0.864" transform="rotate(61.0174 152.403 34.9517)" fill="#11121D"/>
<circle cx="94.752" cy="36.4898" r="1.92" fill="#11121D"/>
<circle cx="196.8" cy="36.3934" r="2.016" fill="#11121D"/>
<path d="M183.072 3.46545C183.072 5.05603 181.782 6.34545 180.192 6.34545C178.601 6.34545 177.312 5.05603 177.312 3.46545C177.312 1.87487 178.601 0.585449 180.192 0.585449C181.782 0.585449 183.072 1.87487 183.072 3.46545Z" fill="#11121D"/>
<circle cx="171.8" cy="72.3927" r="2.88" fill="#11121D"/>
<circle cx="152.16" cy="36.4878" r="6.144" fill="#11121D"/>
<rect x="150.96" y="35.165" width="42.5307" height="2.304" transform="rotate(-48.9705 150.96 35.165)" fill="#11121D"/>
</g>
</svg>
